<?xml version="1.0" encoding="UTF-8" standalone="no"?>
<!-- Created with Inkscape (http://www.inkscape.org/) -->

<svg
   width="200mm"
   height="65mm"
   viewBox="0 0 200 65"
   version="1.1"
   id="svg1"
   xml:space="preserve"
   inkscape:version="1.4.2 (f4327f4, 2025-05-13)"
   sodipodi:docname="logo.svg"
   xmlns:inkscape="http://www.inkscape.org/namespaces/inkscape"
   xmlns:sodipodi="http://sodipodi.sourceforge.net/DTD/sodipodi-0.dtd"
   xmlns="http://www.w3.org/2000/svg"
   xmlns:svg="http://www.w3.org/2000/svg"><sodipodi:namedview
     id="namedview1"
     pagecolor="#ffffff"
     bordercolor="#000000"
     borderopacity="0.25"
     inkscape:showpageshadow="2"
     inkscape:pageopacity="0.0"
     inkscape:pagecheckerboard="0"
     inkscape:deskcolor="#d1d1d1"
     inkscape:document-units="mm"
     inkscape:zoom="0.68862934"
     inkscape:cx="-44.290881"
     inkscape:cy="445.08705"
     inkscape:window-width="1920"
     inkscape:window-height="991"
     inkscape:window-x="-9"
     inkscape:window-y="-9"
     inkscape:window-maximized="1"
     inkscape:current-layer="layer1" /><defs
     id="defs1" /><g
     inkscape:label="Layer 1"
     inkscape:groupmode="layer"
     id="layer1"><path
       style="fill:#000000"
       d="m 63.126789,59.245953 c -1.236927,0.0744 -2.903803,0.0421 -3.704167,-0.0716 -0.800365,-0.11375 -2.138096,-0.4673 -2.972737,-0.78566 -0.834641,-0.31836 -2.240847,-1.06185 -3.124903,-1.6522 -0.884056,-0.59035 -2.072331,-1.68919 -2.640612,-2.44187 -0.56828,-0.75269 -1.271134,-1.90632 -1.561898,-2.56364 -0.290764,-0.65732 -0.711554,-1.8973 -0.935089,-2.75551 -0.223536,-0.85821 -0.406428,-2.28426 -0.406428,-3.169 0,-0.88474 0.181168,-2.31824 0.402595,-3.18556 0.221427,-0.86731 0.75858,-2.30871 1.193674,-3.2031 0.527023,-1.08336 1.360865,-2.15917 2.498088,-3.22298 0.968023,-0.90554 2.427106,-1.93487 3.370388,-2.37768 0.914859,-0.42947 2.318224,-0.94036 3.118588,-1.13532 0.800365,-0.19495 2.526771,-0.34751 3.836459,-0.33902 1.309688,0.008 2.917032,0.16356 3.571875,0.34459 0.654844,0.18103 2.024063,0.72793 3.042709,1.21532 1.079154,0.51635 2.425463,1.44975 3.226008,2.23661 0.755658,0.74274 1.695582,2.00788 2.08872,2.81142 0.393137,0.80355 0.80115,1.93323 0.906695,2.51041 0.105544,0.57718 0.111987,1.0988 0.01432,1.15917 -0.09767,0.0604 -1.243011,0.23963 -2.545203,0.39837 -1.302192,0.15873 -2.687303,0.34038 -3.078025,0.40366 -0.610901,0.0989 -0.750966,-0.008 -1.000002,-0.76245 -0.159279,-0.48262 -0.715594,-1.37517 -1.236254,-1.98344 -0.520661,-0.60828 -1.43126,-1.35318 -2.023553,-1.65535 -0.592293,-0.30217 -1.74036,-0.6075 -2.551259,-0.67852 -1.102631,-0.0966 -1.851717,0.0134 -2.971027,0.436 -0.98436,0.37168 -1.854952,0.95382 -2.543376,1.70067 -0.599165,0.65002 -1.245871,1.73516 -1.512502,2.53791 -0.339609,1.02247 -0.43224,1.92514 -0.341943,3.33216 0.08843,1.378 0.330427,2.35203 0.846313,3.40647 0.500703,1.02339 1.083853,1.7253 1.899798,2.28669 0.693438,0.4771 1.799879,0.92541 2.692019,1.09076 1.10991,0.20571 1.91608,0.19715 3.016696,-0.032 0.826104,-0.17203 1.973966,-0.65466 2.550803,-1.07252 0.66166,-0.4793 1.31935,-1.31273 1.781759,-2.25786 0.732963,-1.49813 0.732963,-1.49813 1.814822,-1.35275 0.595023,0.08 1.796234,0.21593 2.66936,0.30215 0.873125,0.0862 1.856394,0.21256 2.185043,0.28075 0.54184,0.11242 0.581507,0.22828 0.425517,1.24285 -0.09461,0.61539 -0.462823,1.70024 -0.818242,2.41079 -0.355418,0.71054 -1.189446,1.87266 -1.853395,2.58247 -0.66395,0.70982 -1.814792,1.63659 -2.557427,2.05948 -0.742636,0.4229 -2.064622,1.0041 -2.937747,1.29156 -0.873125,0.28745 -2.599531,0.58348 -3.836458,0.65784 z m 83.594401,0.0298 c -1.37478,0.0692 -3.27158,0.008 -4.2151,-0.1362 -0.94353,-0.14413 -2.43181,-0.57684 -3.3073,-0.96158 -0.87548,-0.38474 -2.07076,-1.02088 -2.65618,-1.41365 -0.58541,-0.39278 -1.57786,-1.27118 -2.20543,-1.95202 -0.62757,-0.68083 -1.50276,-2.01087 -1.94487,-2.95563 -0.54701,-1.16894 -0.88786,-2.4387 -1.06685,-3.9743 -0.17637,-1.51309 -0.17412,-2.95295 0.007,-4.37025 0.18383,-1.44003 0.54621,-2.67613 1.13702,-3.87842 0.52142,-1.06113 1.47824,-2.37682 2.39978,-3.29991 1.06004,-1.06181 2.12636,-1.80532 3.45819,-2.41125 1.05906,-0.48184 2.46135,-1.00383 3.11619,-1.15998 0.65485,-0.15614 1.905,-0.36225 2.77813,-0.45801 0.87312,-0.0958 2.51138,-0.0448 3.64057,0.11315 1.12919,0.158 3.03026,0.66411 4.22459,1.1247 1.89246,0.72981 2.42935,1.09562 4.17782,2.84658 1.61693,1.61922 2.14779,2.36338 2.73534,3.83437 0.40097,1.00387 0.85557,2.8055 1.01023,4.00362 0.2303,1.78403 0.20436,2.55529 -0.14325,4.2602 -0.23344,1.14498 -0.78229,2.80876 -1.21965,3.69728 -0.43736,0.88853 -1.39541,2.22525 -2.129,2.9705 -0.73359,0.74525 -1.86826,1.66822 -2.5215,2.05104 -0.65324,0.38283 -1.99506,0.97682 -2.98183,1.31998 -1.1955,0.41575 -2.62811,0.66592 -4.29372,0.74978 z m -0.42444,-6.08027 c 0.85029,-0.0605 2.04092,-0.32895 2.64583,-0.59653 0.60491,-0.26759 1.48705,-0.92753 1.9603,-1.46654 0.47325,-0.53901 1.05551,-1.42207 1.2939,-1.96236 0.28757,-0.65176 0.43607,-1.73916 0.44128,-3.2313 0.005,-1.54632 -0.13276,-2.57515 -0.44219,-3.29305 -0.24752,-0.57425 -0.72969,-1.41073 -1.07149,-1.85886 -0.3418,-0.44812 -1.22681,-1.14424 -1.96668,-1.54694 -0.73988,-0.40269 -1.93168,-0.80162 -2.64845,-0.88651 -0.71677,-0.0849 -1.9043,-0.0101 -2.63895,0.16609 -0.73465,0.17624 -1.86616,0.65683 -2.51447,1.06797 -0.90454,0.57365 -1.37765,1.1516 -2.03387,2.48457 -0.68031,1.3819 -0.85836,2.0794 -0.8709,3.41162 -0.009,0.92102 0.14374,2.24422 0.33867,2.94043 0.23424,0.83666 0.79285,1.74558 1.64752,2.68072 0.71122,0.77818 1.67505,1.53488 2.14185,1.68155 0.46681,0.14667 1.14639,0.32348 1.51019,0.39292 0.36381,0.0694 1.35716,0.0767 2.20746,0.0162 z m 34.9807,6.23312 c -0.58989,-0.002 -1.3611,-0.15097 -1.7138,-0.33073 -0.3527,-0.17975 -0.91825,-0.85157 -1.25677,-1.49292 -0.46509,-0.88114 -0.61501,-1.59235 -0.6135,-2.91042 0.001,-0.95937 0.12361,-2.51822 0.27224,-3.46411 0.14864,-0.94589 0.44539,-2.16869 0.65946,-2.71733 0.21407,-0.54865 0.3866,-1.56068 0.38341,-2.24896 -0.003,-0.68828 -0.24787,-1.78506 -0.54372,-2.43729 -0.29584,-0.65222 -0.73971,-1.41181 -0.98637,-1.68796 -0.24666,-0.27615 -0.8652,-0.76477 -1.37452,-1.08581 -0.50932,-0.32104 -1.5128,-0.78185 -2.22994,-1.02401 -0.71715,-0.24217 -1.46152,-0.44031 -1.65416,-0.44031 -0.2586,0 -0.21164,0.25863 0.17942,0.98827 0.29133,0.54355 0.52968,1.19839 0.52968,1.45521 0,0.33457 -0.20627,0.46511 -0.7276,0.46047 -0.40018,-0.004 -1.24218,-0.12514 -1.8711,-0.27019 -0.62892,-0.14504 -1.65363,-0.31154 -2.27715,-0.36998 -0.62351,-0.0584 -1.6458,-0.24418 -2.27175,-0.41273 -0.62596,-0.16855 -1.47647,-0.64483 -1.89004,-1.0584 -0.45106,-0.45106 -0.75194,-1.03489 -0.75194,-1.45905 0,-0.38892 0.25111,-1.05977 0.55803,-1.4908 0.30692,-0.43102 0.51527,-0.80659 0.46302,-0.83459 -0.0523,-0.028 -0.41154,-0.22951 -0.79841,-0.44779 -0.38687,-0.21828 -1.43368,-0.96619 -2.32624,-1.66202 -0.89256,-0.69583 -1.97502,-1.82047 -2.40546,-2.49919 -0.44609,-0.70342 -0.78261,-1.59737 -0.78261,-2.07899 0,-0.46471 0.22858,-1.12601 0.50795,-1.46955 0.47684,-0.58638 0.65983,-0.6204 2.98831,-0.55568 1.80523,0.0502 2.6191,-0.0325 2.99001,-0.30372 0.46974,-0.34348 0.48642,-0.5082 0.21301,-2.10431 -0.16314,-0.95241 -0.58784,-2.36777 -0.94378,-3.14524 -0.35593,-0.77747 -1.19552,-1.96982 -1.86574,-2.64966 -0.67021,-0.67985 -1.7303,-1.55974 -2.35573,-1.95531 -0.62543,-0.39558 -1.89877,-0.99599 -2.82964,-1.33424 -1.13213,-0.41139 -2.27092,-0.61468 -3.43958,-0.61402 -1.27468,7.2e-4 -1.97962,0.14276 -2.607,0.52528 -0.6884,0.41973 -0.85955,0.69656 -0.85815,1.38807 9.6e-4,0.47509 0.22712,1.20565 0.50259,1.62349 0.34663,0.52578 0.97746,0.91977 2.04878,1.2796 0.85136,0.28595 1.96465,0.82724 2.47397,1.20286 0.50932,0.37563 1.18965,0.99043 1.51184,1.36623 0.32219,0.3758 0.59008,0.99612 0.59531,1.37848 0.005,0.38237 -0.16921,0.84354 -0.38766,1.02484 -0.32061,0.26608 -0.79244,0.22316 -2.4474,-0.22264 -1.12762,-0.30375 -3.35991,-0.91729 -4.96063,-1.36342 -1.60073,-0.44613 -4.04152,-1.04976 -5.42396,-1.3414 -1.38245,-0.29163 -3.10886,-0.54642 -3.83646,-0.56619 -0.72761,-0.0198 -1.56585,0.0941 -1.86276,0.25314 -0.5102,0.27321 -0.52839,0.43133 -0.33126,2.88023 0.1673,2.07818 0.13527,2.66446 -0.16177,2.9615 -0.27335,0.27335 -0.56442,0.30568 -1.11121,0.12342 -0.58336,-0.19446 -0.8045,-0.49624 -1.04035,-1.41977 -0.16473,-0.64506 -0.45466,-1.42096 -0.64428,-1.72423 -0.18963,-0.30328 -0.97338,-1.00685 -1.74167,-1.5635 -0.7683,-0.55665 -2.09145,-1.29566 -2.94034,-1.64224 -0.8489,-0.34658 -2.05962,-0.76103 -2.6905,-0.921 -0.76443,-0.19382 -1.23887,-0.49235 -1.4223,-0.89496 -0.15139,-0.33226 -0.19879,-1.01173 -0.10533,-1.50994 0.11243,-0.5993 0.38419,-1.00344 0.80309,-1.1943 0.4361,-0.19871 1.18114,-0.21088 2.39401,-0.0391 0.96847,0.13715 2.55681,0.43543 3.52964,0.66285 0.97283,0.22741 1.97552,0.52446 2.22821,0.6601 0.25269,0.13564 0.60987,0.24512 0.79375,0.24329 0.18387,-0.002 0.90239,-0.6511 1.59669,-1.4428 0.69431,-0.7917 2.12306,-2.1325 3.175,-2.97956 1.05195,-0.84707 2.74607,-2.08991 3.76471,-2.76188 1.01865,-0.67197 2.56646,-1.57817 3.43959,-2.0137795 0.87312,-0.43561 2.00421,-0.98202 2.51354,-1.21425 0.50932,-0.23223 1.63346,-0.66406 2.49808,-0.95963 0.86462,-0.29556 2.75272,-0.77408 4.19578,-1.06337 1.49452,-0.2996 3.68499,-0.52598 5.08955,-0.52598 1.35619,0 3.39715,0.12784 4.53547,0.28408 1.13831,0.15624 2.96263,0.58855 4.05404,0.96068 1.0914,0.37213 2.81781,1.09343 3.83646,1.60288 1.01864,0.50945 2.36904,1.2810195 3.00088,1.7145895 0.63184,0.43358 1.73714,1.31086 2.45623,1.94951 1.07187,0.95197 1.49427,1.16118 2.34448,1.16118 0.57038,0 1.31054,-0.12851 1.64481,-0.28557 0.33427,-0.15706 1.50073,-1.36734 2.59214,-2.68951 1.09141,-1.3221795 2.38722,-3.0093795 2.87959,-3.7493395 0.49237,-0.73995 1.19925,-1.6728 1.57085,-2.07298 0.37161,-0.40018 0.94684,-0.7276 1.27829,-0.7276 0.33146,0 0.7259,0.2303 0.87654,0.51177 0.15064,0.28148 0.2739,1.28295 0.2739,2.2255 0,0.94255 -0.30379,2.99939 -0.67508,4.5707495 -0.37129,1.57136 -0.7751,2.9809 -0.89736,3.13231 -0.12226,0.15141 -0.37199,0.98967 -0.55496,1.86279 -0.18296,0.87313 -0.34469,2.59953 -0.3594,3.83646 -0.0251,2.1137 0.0475,2.424 1.20781,5.15938 0.679,1.60072 1.48706,4.08942 1.79567,5.53043 0.30862,1.44101 0.62953,3.7032 0.71314,5.02708 0.0836,1.32389 0.0177,3.35957 -0.14643,4.52374 -0.16416,1.16416 -0.54964,3.12869 -0.85664,4.36562 -0.307,1.23693 -0.99962,3.20146 -1.53917,4.36563 -0.53954,1.16416 -1.43492,2.82282 -1.98972,3.6859 -0.5548,0.86308 -1.79531,2.35582 -2.75668,3.3172 -0.96138,0.96138 -2.39607,2.07093 -3.18819,2.46566 -0.86316,0.43013 -1.86997,0.71613 -2.51276,0.71379 z m 2.59138,-9.25651 c 0.33032,0 0.78049,-0.14883 1.00039,-0.33073 0.2199,-0.1819 0.60099,-0.65572 0.84687,-1.05292 0.24589,-0.39721 0.61944,-1.46877 0.83013,-2.38125 0.26709,-1.15678 0.31169,-1.97327 0.1473,-2.69692 -0.12967,-0.57082 -0.4634,-1.34472 -0.74162,-1.71979 -0.27822,-0.37506 -0.95802,-0.83328 -1.51068,-1.01825 -0.8521,-0.28521 -1.09876,-0.27477 -1.62287,0.0686 -0.33992,0.22273 -0.82431,0.79079 -1.07641,1.26236 -0.29361,0.54923 -0.45463,1.42801 -0.44798,2.44491 0.006,0.87312 0.21279,2.19365 0.46016,2.9345 0.24737,0.74085 0.68925,1.60405 0.98195,1.91823 0.29269,0.31417 0.80244,0.57123 1.13276,0.57123 z m -74.64373,8.67282 c -2.66234,0.056 -3.54243,-0.008 -3.64078,-0.26459 -0.0713,-0.18614 -0.0987,-6.05344 -0.0608,-13.03844 l 0.0689,-12.7 h 7.80521 7.80521 l 2.06638,0.76023 c 1.54021,0.56665 2.3934,1.07876 3.35064,2.01114 1.02423,0.99763 1.39602,1.61275 1.83622,3.03795 0.30358,0.98287 0.55197,2.28867 0.55197,2.90178 0,0.6131 -0.17743,1.71217 -0.39427,2.44237 -0.21685,0.7302 -0.73969,1.80448 -1.16186,2.38727 -0.42218,0.5828 -1.34226,1.39641 -2.04463,1.80803 -0.70236,0.41161 -1.73922,0.88486 -2.30413,1.05165 l -1.0271,0.30327 2.34151,2.7691 c 1.28783,1.52301 2.96659,3.55609 3.73058,4.51797 0.76398,0.96187 1.38906,1.82127 1.38906,1.90978 0,0.0885 -1.75617,0.15666 -3.9026,0.15146 l -3.90261,-0.009 -3.30729,-4.47068 -3.30729,-4.47068 -1.11808,-0.0178 -1.11808,-0.0178 -0.0725,4.43177 -0.0725,4.43177 z m 6.56227,-13.69991 c 1.88203,0 3.22908,-0.12959 3.79204,-0.36481 0.48021,-0.20065 1.12811,-0.68897 1.43976,-1.08517 0.31165,-0.3962 0.64212,-1.12277 0.73439,-1.6146 0.11841,-0.63117 0.0156,-1.18759 -0.34958,-1.89139 -0.28454,-0.54843 -0.91512,-1.22958 -1.4013,-1.51365 -0.70158,-0.40994 -1.52873,-0.53949 -4.00909,-0.62793 l -3.12513,-0.11142 v 3.60449 3.60448 z m -35.456992,13.49375 c -2.040411,0 -3.706751,-0.0893 -3.702976,-0.19843 0.0038,-0.10914 1.828457,-5.91344 4.054849,-12.89844 l 4.047987,-12.7 5.320194,-0.0716 5.320195,-0.0716 0.67322,2.18824 c 0.37028,1.20353 2.20615,6.9782 4.079713,12.83261 1.87357,5.85441 3.34467,10.7062 3.2691,10.78177 -0.0756,0.0756 -1.77283,0.13739 -3.771693,0.13739 h -3.6343 l -0.55494,-1.82701 c -0.30522,-1.00485 -0.55494,-1.95735 -0.55494,-2.11666 0,-0.19906 -1.485331,-0.28966 -4.748977,-0.28966 h -4.74898 l -0.440726,1.52135 c -0.242399,0.83675 -0.543587,1.78925 -0.669306,2.11667 -0.222005,0.57819 -0.335295,0.59531 -3.93842,0.59531 z m 9.812219,-9.525 c 2.943979,0 3.188517,-0.0375 3.020611,-0.46302 -0.100482,-0.25466 -0.780485,-2.36802 -1.511117,-4.69635 -0.730632,-2.32833 -1.41249,-4.38656 -1.515241,-4.57383 -0.107162,-0.19531 -0.555925,0.87643 -1.052475,2.51354 -0.476111,1.56972 -1.153527,3.74741 -1.505371,4.83932 -0.351843,1.0919 -0.639714,2.07416 -0.639714,2.18281 0,0.10864 1.441488,0.19753 3.203307,0.19753 z M 38.243094,29.660963 c -0.938812,0.064 -2.064118,0.0218 -2.500681,-0.0939 -0.436562,-0.11565 -1.286973,-0.46383 -1.8898,-0.77372 -0.602828,-0.3099 -1.5191,-1.05769 -2.036161,-1.66175 -0.51706,-0.60407 -1.125165,-1.64142 -1.351345,-2.30522 -0.226179,-0.6638 -0.411236,-1.88511 -0.411236,-2.71401 0,-0.82891 0.18093,-2.01991 0.402066,-2.64668 0.221136,-0.62677 0.712996,-1.54723 1.093023,-2.04547 0.380026,-0.49824 1.20951,-1.23475 1.843297,-1.63668 0.633787,-0.40194 1.874392,-0.87285 2.756899,-1.04647 1.223423,-0.24069 1.962734,-0.24328 3.11245,-0.0109 0.82934,0.16764 2.018926,0.5995 2.643525,0.9597 0.624599,0.3602 1.490921,1.14536 1.92516,1.74481 0.434239,0.59945 0.979506,1.74342 1.211706,2.54216 0.270507,0.93051 0.370676,1.95128 0.278819,2.84129 -0.07885,0.76397 -0.37218,1.90399 -0.651847,2.53338 -0.279667,0.62939 -0.830439,1.52521 -1.223937,1.99072 -0.393499,0.46551 -1.340852,1.15236 -2.10523,1.52633 -0.897587,0.43915 -1.994289,0.72118 -3.096708,0.79637 z m 0.145153,-1.89884 c 0.582083,-0.0782 1.415521,-0.32092 1.852083,-0.53936 0.436563,-0.21844 1.067699,-0.71038 1.402525,-1.09319 0.334826,-0.38281 0.790847,-1.10198 1.013379,-1.59814 0.222531,-0.49616 0.401394,-1.5731 0.397471,-2.39319 -0.0039,-0.82009 -0.135486,-1.82868 -0.292364,-2.2413 -0.156878,-0.41262 -0.530419,-1.09455 -0.830091,-1.5154 -0.299673,-0.42085 -1.006339,-1.00061 -1.57037,-1.28836 -0.68872,-0.35136 -1.553789,-0.52318 -2.634092,-0.52318 -1.060815,0 -1.942858,0.17143 -2.590228,0.50342 -0.539906,0.27688 -1.245513,0.78629 -1.568016,1.13201 -0.322503,0.34573 -0.768988,1.14619 -0.992188,1.77881 -0.2232,0.63262 -0.405818,1.59372 -0.405818,2.1358 0,0.54207 0.135506,1.3903 0.301123,1.88496 0.165618,0.49466 0.588492,1.28646 0.939719,1.75955 0.351228,0.4731 1.019394,1.05856 1.484815,1.30104 0.46542,0.24247 1.203406,0.53037 1.639968,0.63978 0.436563,0.10941 1.27,0.13495 1.852084,0.0568 z m 11.340329,1.89684 c -0.70739,0.0585 -1.64335,0.0242 -2.079913,-0.0763 -0.658173,-0.15148 -0.808057,-0.33132 -0.877513,-1.05288 l -0.08376,-0.87019 1.298532,0.17226 c 0.939115,0.12458 1.520983,0.0572 2.102222,-0.24335 0.442029,-0.22858 0.906901,-0.62836 1.033048,-0.88841 0.126147,-0.26004 0.289403,-2.97312 0.362792,-6.02905 l 0.133433,-5.55625 0.816286,-0.0797 c 0.489556,-0.0478 0.94928,0.0806 1.148552,0.3207 0.249233,0.30031 0.309024,1.70873 0.23926,5.63591 -0.07936,4.46749 -0.165985,5.38329 -0.590474,6.24267 -0.273607,0.55392 -0.884204,1.3021 -1.356883,1.66263 -0.559506,0.42675 -1.308248,0.69264 -2.145579,0.76191 z m 26.637486,0.006 c -0.805923,0.0609 -1.822502,0.012 -2.259064,-0.10877 -0.436563,-0.12074 -1.120259,-0.35034 -1.519324,-0.51023 -0.399066,-0.15989 -1.257872,-0.78136 -1.908457,-1.38104 -0.782286,-0.72109 -1.365401,-1.57817 -1.721822,-2.53079 -0.31948,-0.85389 -0.538939,-2.0788 -0.538939,-3.0081 0,-0.92929 0.219459,-2.1542 0.538939,-3.00809 0.356421,-0.95262 0.939536,-1.8097 1.721822,-2.53079 0.650585,-0.59969 1.495274,-1.20911 1.877085,-1.35428 0.381811,-0.14516 1.2441,-0.38751 1.916198,-0.53856 0.880734,-0.19793 1.690749,-0.18639 2.900504,0.0413 1.138368,0.21428 2.031388,0.58511 2.775105,1.15236 0.603129,0.46002 1.369275,1.24103 1.702547,1.73557 0.333272,0.49454 0.678168,1.18691 0.766435,1.53859 0.101678,0.40512 0.02617,0.72449 -0.206053,0.87156 -0.201597,0.12768 -0.637378,0.23396 -0.968401,0.23619 -0.387293,0.003 -0.684574,-0.2135 -0.83387,-0.60618 -0.127604,-0.33562 -0.565582,-1.00665 -0.973285,-1.49118 -0.407702,-0.48453 -1.129965,-1.04336 -1.605028,-1.24186 -0.475064,-0.19849 -1.484829,-0.3609 -2.243923,-0.3609 -0.860493,0 -1.811529,0.20882 -2.525779,0.55458 -0.773722,0.37456 -1.364905,0.92878 -1.821157,1.70732 -0.386225,0.65904 -0.737046,1.75298 -0.819142,2.55427 -0.07898,0.77085 -0.0064,1.90912 0.161255,2.5295 0.167666,0.62037 0.6747,1.54919 1.12674,2.06403 0.452041,0.51485 1.188083,1.12545 1.635648,1.35689 0.447565,0.23145 1.412157,0.42638 2.143537,0.43319 0.803127,0.007 1.816896,-0.20634 2.559726,-0.53987 0.909825,-0.40852 1.415629,-0.8691 1.94337,-1.76962 0.626321,-1.06874 0.82342,-1.21737 1.614327,-1.21737 0.731787,0 0.9009,0.1018 0.9009,0.54231 0,0.29826 -0.170886,0.87276 -0.379746,1.27665 -0.208861,0.40389 -0.861052,1.16918 -1.449315,1.70064 -0.588262,0.53146 -1.514157,1.15205 -2.057543,1.37909 -0.543386,0.22704 -1.647366,0.46265 -2.45329,0.52357 z M 4.8501822,29.219743 c -0.6454244,0.0534 -1.0416264,-0.041 -1.1291524,-0.26914 -0.07416,-0.19326 -0.102969,-3.38543 -0.06402,-7.0937 l 0.07082,-6.74232 h 3.9687504 c 3.7040238,0 4.0353598,0.0414 4.9673528,0.62085 0.549231,0.34147 1.194924,0.99632 1.434874,1.45521 0.267647,0.51186 0.437741,1.47192 0.44007,2.48387 0.0033,1.44181 -0.0968,1.77498 -0.795097,2.64583 -0.530933,0.66214 -1.235351,1.14774 -2.100131,1.44776 -0.79937,0.27733 -2.1392818,0.45591 -3.4741188,0.46302 l -2.172884,0.0116 -0.07607,2.4474 -0.07607,2.44739 z m 3.503681,-6.82912 c 2.2525438,0 2.4223438,-0.0404 3.2411458,-0.77205 0.741843,-0.66284 0.86407,-0.94661 0.86407,-2.00608 0,-1.05947 -0.122227,-1.34324 -0.86407,-2.00608 -0.818802,-0.7316 -0.988602,-0.77204 -3.2411458,-0.77204 h -2.377075 v 2.77812 2.77813 z m 9.4609028,6.82912 c -0.645424,0.0534 -1.041627,-0.041 -1.129152,-0.26914 -0.07416,-0.19326 -0.10297,-3.38543 -0.06402,-7.0937 l 0.07082,-6.74232 3.836458,-0.0752 c 3.021957,-0.0592 4.073595,0.015 4.953414,0.34974 0.614325,0.23372 1.414865,0.779 1.778978,1.21172 0.364114,0.43273 0.793599,1.2754 0.954412,1.87262 0.238444,0.88551 0.211815,1.29682 -0.144343,2.2294 -0.240201,0.62896 -0.794577,1.44467 -1.231946,1.81269 -0.437368,0.36802 -1.262252,0.74381 -1.833073,0.83509 -0.570822,0.0913 -1.037858,0.24332 -1.037858,0.33788 0,0.0945 0.948797,1.24019 2.108437,2.54587 1.159641,1.30567 2.112141,2.52278 2.116667,2.70468 0.0052,0.21043 -0.373856,0.33073 -1.042195,0.33073 -1.014524,0 -1.132754,-0.0995 -3.459287,-2.91041 -2.397503,-2.89669 -2.414342,-2.91042 -3.570833,-2.91042 h -1.16197 l -0.0751,2.84427 -0.0751,2.84427 z m 3.653286,-7.35829 c 1.736147,0 2.76846,-0.12503 3.299448,-0.39961 0.425023,-0.21979 0.89536,-0.62868 1.045195,-0.90865 0.149834,-0.27997 0.272426,-0.923 0.272426,-1.42895 0,-0.70242 -0.192469,-1.08187 -0.81405,-1.60489 -0.761831,-0.64104 -0.990959,-0.68498 -3.571875,-0.68498 h -2.757825 v 2.51354 2.51354 z m 40.199207,7.40833 h -5.163697 l 0.07047,-7.0776 0.07047,-7.0776 4.960938,-0.072 4.960937,-0.072 v 0.93188 0.93188 h -3.96875 -3.96875 v 2.1092 2.1092 l 3.638021,0.0736 3.638021,0.0736 0.08372,0.72761 0.08372,0.7276 h -3.72174 -3.721741 v 2.38125 2.38125 h 4.101042 4.101042 v 0.92604 0.92604 z m 28.116301,-0.0502 -0.992187,0.0821 v -6.09635 c 0,-6.09635 0,-6.09635 -0.595313,-6.23253 -0.327421,-0.0749 -1.42875,-0.16647 -2.447396,-0.20348 -1.852083,-0.0673 -1.852083,-0.0673 -1.852083,-0.86104 v -0.79375 h 5.688542 5.688544 l 0.0829,0.85989 0.0829,0.8599 h -2.260848 -2.260846 l -0.07102,6.15156 -0.07102,6.15156 z"
       id="path2"
       sodipodi:nodetypes="ccssssssssssscssssssscsssssssssssssscsssssssccscssssssssssccssssssssssssssscsssscsssssssssssscsscssssssscsssssssssssssssssssssssssscssssscsssssssssssssscssssssssssssssssssssssssssssssssssssssssssssscsssscsscccsssssssscssscccccccccssssssscccscsscccsssscssscssccssssssssccsssssssssssssssscccssssssssssssssssccccscsssscsssssccssssssssssssssscsssssssssscssssssssscsscsssssssccccssssscccscssccsssssssscsssccccsssssscccscccccccccccccccccccccccccccsssscccccccccc" /><path
       style="fill:#000000"
       id="path1"
       d="" /></g></svg>
